<svg xmlns="http://www.w3.org/2000/svg" xmlns:xlink="http://www.w3.org/1999/xlink" width="213" height="254.253" viewBox="0 0 213 254.253"><defs><clipPath id="a"><rect width="120.391" height="171.747" fill="none"/></clipPath><clipPath id="b"><rect width="120.391" height="121.233" fill="none"/></clipPath></defs><g transform="translate(-1276 -506)" opacity="0.43"><rect width="154.067" height="208.791" rx="4" transform="translate(1276 506)" fill="#bfbfbf"/><g transform="translate(1293.68 527.889)" clip-path="url(#a)"><g transform="translate(-1368 -587)"><rect width="143" height="12" rx="3" transform="translate(1368 587)" fill="#fff"/></g><g transform="translate(-1368 -555)"><rect width="143" height="12" rx="3" transform="translate(1368 587)" fill="#fff"/></g><g transform="translate(-1368 -523)"><rect width="143" height="12" rx="3" transform="translate(1368 587)" fill="#fff"/></g><g transform="translate(-1368 -491)"><rect width="143" height="12" rx="3" transform="translate(1368 587)" fill="#fff"/></g><g transform="translate(-1368 -459)"><rect width="143" height="12" rx="3" transform="translate(1368 587)" fill="#fff"/></g><g transform="translate(-1368 -427)"><rect width="143" height="12" rx="3" transform="translate(1368 587)" fill="#fff"/></g></g><rect width="154.067" height="208.791" rx="4" transform="translate(1334.933 551.462)" fill="#e7e7e7"/><g transform="translate(1353.455 618.814)" clip-path="url(#b)"><g transform="translate(-1368 -587)"><rect width="143" height="12" rx="3" transform="translate(1368 587)" fill="#fff"/></g><g transform="translate(-1368 -555)"><rect width="143" height="12" rx="3" transform="translate(1368 587)" fill="#fff"/></g><g transform="translate(-1368 -523)"><rect width="143" height="12" rx="3" transform="translate(1368 587)" fill="#fff"/></g><g transform="translate(-1368 -491)"><rect width="143" height="12" rx="3" transform="translate(1368 587)" fill="#fff"/></g></g><rect width="44.621" height="36.202" rx="3" transform="translate(1353.455 574.194)" fill="#fff"/><rect width="65.668" height="36.202" rx="3" transform="translate(1408.178 574.194)" fill="#fff"/></g></svg>