<svg width="3673" height="3534" viewBox="0 0 3673 3534" fill="none" xmlns="http://www.w3.org/2000/svg">
<path fill-rule="evenodd" clip-rule="evenodd" d="M3327.62 2713.5C3544.31 2429.4 3673 2074.56 3673 1689.67C3673 756.491 2916.55 0 1983.42 0C1630.13 0 1302.16 108.441 1030.98 293.855H1167.2L1650.38 852.339C1753.4 811.322 1865.78 788.77 1983.42 788.77C2480.95 788.77 2884.27 1192.12 2884.27 1689.67C2884.27 1903.39 2809.86 2099.73 2685.52 2254.18H2930.24L3327.62 2713.5ZM2783.09 3178.48C2545.03 3306.63 2272.72 3379.34 1983.42 3379.34C1050.29 3379.34 293.84 2622.85 293.84 1689.67C293.84 1331.8 405.087 999.923 594.885 726.727L1036.6 1237.29H1204.21C1126.87 1370.23 1082.57 1524.78 1082.57 1689.67C1082.57 2187.22 1485.89 2590.57 1983.42 2590.57C2073.26 2590.57 2160.02 2577.42 2241.89 2552.94L2783.09 3178.48Z" fill="#218DF0"/>
<path fill-rule="evenodd" clip-rule="evenodd" d="M3033.78 2868.16C3250.47 2584.06 3379.16 2229.23 3379.16 1844.33C3379.16 911.152 2622.71 154.661 1689.58 154.661C1336.29 154.661 1008.32 263.102 737.142 448.516H873.358L1356.54 1007C1459.56 965.983 1571.94 943.431 1689.58 943.431C2187.11 943.431 2590.43 1346.78 2590.43 1844.33C2590.43 2058.05 2516.02 2254.39 2391.68 2408.84H2636.4L3033.78 2868.16ZM2489.25 3333.14C2251.19 3461.29 1978.88 3534 1689.58 3534C756.451 3534 0 2777.51 0 1844.33C0 1486.46 111.248 1154.58 301.045 881.388L742.762 1391.95H910.368C833.025 1524.89 788.728 1679.44 788.728 1844.33C788.728 2341.88 1192.05 2745.23 1689.58 2745.23C1779.42 2745.23 1866.18 2732.08 1948.05 2707.6L2489.25 3333.14Z" fill="#5AB0FF"/>
<path d="M591.547 728.839L299.64 881.567L744.266 1391.95H912.451L1204.36 1235.35H1036.17L591.547 728.839Z" fill="#56A4ED"/>
<path d="M2781.81 3178.28C2689.02 3225.97 2494.16 3325.21 2487.97 3332.94L1944.76 2708.5L2246.33 2555.77L2781.81 3178.28Z" fill="#56A4ED"/>
<path d="M3326.96 2712.36L3033.12 2868.96C3147.18 2708.5 3170.38 2658.23 3210.97 2578.97L3326.96 2712.36Z" fill="#218DF0"/>
</svg>
