<?xml version="1.0" encoding="UTF-8" standalone="no"?>
<svg version="1.1" xmlns="http://www.w3.org/2000/svg" xmlns:xlink="http://www.w3.org/1999/xlink" preserveAspectRatio="xMidYMid meet" viewBox="0 0 87 87" width="87" height="87"><defs><path d="M13.74 65.68C14.15 69.25 16.78 72.16 20.29 72.94C22.19 73.36 24.78 73.94 27.37 74.52C28.97 74.87 30.49 75.52 31.86 76.43C34.06 77.9 36.89 79.8 38.67 80.98C41.25 82.71 44.59 82.85 47.3 81.34C49.56 80.08 53.51 77.89 56.17 76.41C57.79 75.51 59.52 74.84 61.32 74.42C63.69 73.86 65.54 73.43 67.27 73.03C70.82 72.2 73.47 69.22 73.88 65.6C74.07 63.87 74.05 64.07 74.26 62.18C74.65 58.76 75.82 55.47 77.67 52.57C78.97 50.52 79.56 49.61 80.74 47.76C82.77 44.58 82.4 40.42 79.83 37.65C78.83 36.57 78.52 36.24 77.11 34.71C75.64 33.13 74.74 31.12 74.54 28.98C74.27 26.08 74 23.14 73.79 20.86C73.44 17.11 70.58 14.08 66.85 13.52C65.51 13.32 62.17 12.81 56.81 12.01C51.71 8.73 48.52 6.68 47.25 5.87C44.52 4.11 40.99 4.22 38.37 6.13C37.29 6.91 34.61 8.87 30.31 12.01C25.48 12.91 22.45 13.48 21.24 13.7C17.19 14.46 14.1 17.77 13.62 21.86C13.41 23.6 13.23 25.17 12.93 27.72C12.71 29.56 11.94 31.29 10.73 32.68C9.05 34.62 8.28 35.5 7.2 36.74C4.36 40.01 4.2 44.83 6.82 48.28C7.98 49.79 8.79 50.86 10.4 52.99C11.84 54.87 12.74 57.11 13.01 59.47C13.3 61.9 13.51 63.72 13.74 65.68Z" id="a4uD2AH6ra"></path><path d="M34.12 52.32C33.11 53.33 33.11 54.96 34.12 55.97C34.88 56.73 35.35 57.2 36.11 57.96C37.12 58.97 38.75 58.97 39.76 57.96C45.03 52.69 59.03 38.69 64.31 33.41C65.32 32.41 65.32 30.77 64.31 29.77C63.55 29 63.08 28.54 62.32 27.77C61.31 26.77 59.68 26.77 58.67 27.77C53.4 33.05 39.39 47.05 34.12 52.32Z" id="a3sQnruLu9"></path><path d="M42.37 52.98C43.02 53.62 43.02 54.67 42.37 55.32C41.48 56.21 39.97 57.72 39.07 58.62C38.43 59.26 37.38 59.26 36.73 58.62C34 55.88 26.95 48.83 24.21 46.1C23.57 45.45 23.57 44.4 24.21 43.76C25.11 42.86 26.62 41.35 27.51 40.46C28.16 39.81 29.2 39.81 29.85 40.46C32.59 43.19 39.63 50.24 42.37 52.98Z" id="hmfaiVK79"></path></defs><g><g><g><use xlink:href="#a4uD2AH6ra" opacity="1" fill="#005BB7" fill-opacity="1"></use><g><use xlink:href="#a4uD2AH6ra" opacity="1" fill-opacity="0" stroke="#ffffff" stroke-width="4" stroke-opacity="1"></use></g></g><g><g><use xlink:href="#a3sQnruLu9" opacity="1" fill="#ffffff" fill-opacity="1"></use></g><g><use xlink:href="#hmfaiVK79" opacity="1" fill="#ffffff" fill-opacity="1"></use></g></g></g></g></svg>
